<svg xmlns="http://www.w3.org/2000/svg" width="25" height="25" viewBox="0 0 25 25"><defs><style>.a,.b{fill:#1526a7;}.b{opacity:0.4;}</style></defs><g transform="translate(2.083 2.083)"><path class="a" d="M8.492.671a1.1,1.1,0,0,1,.1.343l.29,4.312h0L9.03,7.494a2.229,2.229,0,0,0,.1.657,1.086,1.086,0,0,0,1.047.657l6.935-.454a1.144,1.144,0,0,1,.806.312,1.1,1.1,0,0,1,.333.634l.012.146A9.044,9.044,0,0,1,11.1,17.59,9.225,9.225,0,0,1,1.1,13.15,8.557,8.557,0,0,1,.067,9.873,6.269,6.269,0,0,1,0,8.845,9.058,9.058,0,0,1,7.275.014,1.136,1.136,0,0,1,8.492.671Z" transform="translate(0 3.033)"/><path class="b" d="M.884,0a9.838,9.838,0,0,1,9.51,8.137l-.007.034h0l-.021.049,0,.136a.834.834,0,0,1-.2.492.862.862,0,0,1-.482.283l-.114.016-8,.518a.955.955,0,0,1-.729-.236.92.92,0,0,1-.3-.56L.007.88A.127.127,0,0,1,.007.8.817.817,0,0,1,.276.219.849.849,0,0,1,.884,0Z" transform="translate(10.438 0)"/></g></svg>