<svg xmlns="http://www.w3.org/2000/svg" width="21.236" height="24" viewBox="0 0 21.236 24"><defs><style>.a,.b{fill:#9ba5eb;}.a{opacity:0.4;}</style></defs><path class="a" d="M10.726,24a1.009,1.009,0,0,1-.449-.1l-4.5-2.237A10.537,10.537,0,0,1,2.724,19.48,9.679,9.679,0,0,1,.053,12.912L0,4.949A2.184,2.184,0,0,1,1.534,2.895L9.794.128A2.442,2.442,0,0,1,11.331.12l8.291,2.672a2.182,2.182,0,0,1,1.561,2.035l.053,7.969a9.669,9.669,0,0,1-2.581,6.594A10.485,10.485,0,0,1,15.63,21.6l-4.458,2.288a.985.985,0,0,1-.446.109" transform="translate(0 0)"/><path class="b" d="M3.343,6.378a.975.975,0,0,1-.669-.254L.28,3.912A.843.843,0,0,1,.272,2.664a.99.99,0,0,1,1.334-.008L3.329,4.247,7.536.263A.99.99,0,0,1,8.87.254.842.842,0,0,1,8.879,1.5L4.008,6.116a.97.97,0,0,1-.665.262" transform="translate(6.424 8.407)"/></svg>