<svg xmlns="http://www.w3.org/2000/svg" width="23.75" height="25" viewBox="0 0 23.75 25"><defs><style>.a,.b{fill:#9ba5eb;}.b{opacity:0.4;}</style></defs><path class="a" d="M3.628,7.063A3.566,3.566,0,0,1,0,3.537,3.577,3.577,0,0,1,3.628,0a3.532,3.532,0,1,1,0,7.063" transform="translate(8.262 8.975)"/><path class="b" d="M23.413,15.462a2.877,2.877,0,0,0-1.035-.987,1.934,1.934,0,0,1-.792-.8A2.277,2.277,0,0,1,22.4,10.55a2.534,2.534,0,0,0,.945-3.537l-.856-1.475a2.641,2.641,0,0,0-3.59-.95,2.466,2.466,0,0,1-3.219-.863,1.932,1.932,0,0,1-.294-1.1A2.223,2.223,0,0,0,15.045,1.3,2.69,2.69,0,0,0,12.772,0h-1.8A2.743,2.743,0,0,0,8.709,1.3a2.231,2.231,0,0,0-.358,1.325,1.932,1.932,0,0,1-.294,1.1,2.454,2.454,0,0,1-3.206.863,2.656,2.656,0,0,0-3.6.95L.393,7.013a2.555,2.555,0,0,0,.945,3.537,2.292,2.292,0,0,1,.83,3.125,2.043,2.043,0,0,1-.8.8,2.648,2.648,0,0,0-1.022.987,2.493,2.493,0,0,0,.026,2.563l.881,1.5a2.667,2.667,0,0,0,2.274,1.3,2.7,2.7,0,0,0,1.354-.375A1.983,1.983,0,0,1,6,20.163a2.365,2.365,0,0,1,2.351,2.275A2.588,2.588,0,0,0,11.009,25h1.737a2.585,2.585,0,0,0,2.644-2.562,2.386,2.386,0,0,1,2.363-2.275,2.038,2.038,0,0,1,1.124.288,2.622,2.622,0,0,0,3.615-.925l.894-1.5a2.523,2.523,0,0,0,.026-2.562" transform="translate(0)"/></svg>